<svg width="34" height="33" viewBox="0 0 34 33" fill="none" xmlns="http://www.w3.org/2000/svg">
<g id="Iconsax/Bold/send2">
<path id="Vector" d="M23.218 4.67028L10.8082 8.79528C2.46628 11.5865 2.46628 16.1378 10.8082 18.9153L14.4913 20.139L15.7144 23.824C18.4904 32.1703 23.0531 32.1703 25.8291 23.824L29.9657 11.4215C31.8073 5.85278 28.7838 2.81403 23.218 4.67028ZM23.6578 12.0678L18.4355 17.3203C18.2293 17.5265 17.9682 17.6228 17.7071 17.6228C17.446 17.6228 17.1849 17.5265 16.9787 17.3203C16.787 17.1262 16.6795 16.8644 16.6795 16.5915C16.6795 16.3187 16.787 16.0568 16.9787 15.8628L22.201 10.6103C22.5996 10.2115 23.2592 10.2115 23.6578 10.6103C24.0563 11.009 24.0563 11.669 23.6578 12.0678Z" fill="black"/>
</g>
</svg>
